<svg width="55" height="54" viewBox="0 0 55 54" fill="none" xmlns="http://www.w3.org/2000/svg">
<g filter="url(#filter0_d_234_45)">
<rect x="4.74573" width="46" height="46" rx="23" fill="#FD853A" shape-rendering="crispEdges"/>
<path d="M39.9401 26.5953C38.8474 27.7882 37.5059 28.526 35.8828 28.5885C32.8179 28.7063 30.4454 26.9061 30.1516 24.6538C29.5669 20.1703 32.4861 17.4112 35.6832 17.4112C37.31 17.4112 38.521 18.0328 39.5961 19.0293L42.401 15.8705C40.8789 14.3661 38.538 13 35.6832 13C32.9193 13 30.4319 13.914 28.5458 15.6215V13.4076H14.6457V17.6873H23.4398V24.4952C23.4398 27.5861 22.2628 28.5885 19.972 28.5885C18.4841 28.5885 16.9616 27.7186 15.6734 26.1089L12.7457 29.2749C14.7088 32.0211 17.6435 33 20.1411 33C24.0065 33 26.3095 31.5884 27.5009 29.4611C29.4398 31.801 32.2821 33 35.3572 33C38.3882 33 40.9081 31.8625 42.7457 29.6852L39.9401 26.5953Z" fill="white"/>
</g>
<defs>
<filter id="filter0_d_234_45" x="0.745728" y="0" width="54" height="54" filterUnits="userSpaceOnUse" color-interpolation-filters="sRGB">
<feFlood flood-opacity="0" result="BackgroundImageFix"/>
<feColorMatrix in="SourceAlpha" type="matrix" values="0 0 0 0 0 0 0 0 0 0 0 0 0 0 0 0 0 0 127 0" result="hardAlpha"/>
<feOffset dy="4"/>
<feGaussianBlur stdDeviation="2"/>
<feComposite in2="hardAlpha" operator="out"/>
<feColorMatrix type="matrix" values="0 0 0 0 0 0 0 0 0 0 0 0 0 0 0 0 0 0 0.25 0"/>
<feBlend mode="normal" in2="BackgroundImageFix" result="effect1_dropShadow_234_45"/>
<feBlend mode="normal" in="SourceGraphic" in2="effect1_dropShadow_234_45" result="shape"/>
</filter>
</defs>
</svg>
